<svg width="125" height="121" viewBox="0 0 125 121" fill="none" xmlns="http://www.w3.org/2000/svg">
<path d="M70.8449 19.5463C75.6537 18.4281 80.6567 20.3693 83.4528 24.4384L105.51 56.5377C108.577 61.0007 108.275 66.9647 104.773 71.0949L81.0976 99.014C77.7897 102.915 72.3727 104.29 67.6044 102.44L29.9346 87.8238C25.1663 85.9737 22.0948 81.3045 22.2837 76.1933L23.6356 39.6125C23.8356 34.201 27.6351 29.594 32.9096 28.3675L70.8449 19.5463Z" fill="#4002C9"/>
<path d="M69.8013 19.9294C74.8665 18.7779 80.0975 21.0161 82.7622 25.475L100.075 54.4443C102.658 58.7675 102.267 64.2441 99.096 68.1566L75.9282 96.7377C72.6459 100.787 67.1249 102.254 62.2653 100.369L28.7857 87.378C23.9261 85.4924 20.8396 80.6854 21.1475 75.4819L23.2835 39.3788C23.5988 34.0496 27.3967 29.5695 32.6024 28.3861L69.8013 19.9294Z" fill="#570DF8"/>
<path d="M47.8163 73.4258C52.9345 78.544 58.0526 81.103 63.1708 81.103C65.8202 81.103 67.9277 80.5009 69.4933 79.2966C71.119 78.0321 71.9319 76.4365 71.9319 74.5096C71.9319 72.5226 70.9685 70.8667 69.0417 69.542C67.1148 68.1571 64.7665 66.9528 61.9966 65.9292C59.287 64.9055 56.5774 63.7615 53.8678 62.497C51.1582 61.1723 48.8399 59.3057 46.9131 56.8971C44.9862 54.4885 44.0228 51.5682 44.0228 48.136C44.0228 42.7167 46.2808 38.0502 50.7969 34.1363C55.3129 30.1622 60.6719 28.1751 66.874 28.1751C69.704 28.1751 72.4437 28.4762 75.0931 29.0783C77.7425 29.6805 80.3016 30.5536 82.7704 31.6976L76.6286 44.8844C74.9426 43.5597 72.6244 42.3555 69.6739 41.2716C66.7836 40.1276 64.2246 39.5555 61.9966 39.5555C59.8289 39.5555 58.0526 40.0974 56.6677 41.1813C55.343 42.2049 54.6807 43.5898 54.6807 45.336C54.6807 47.0822 55.6441 48.6478 57.5709 50.0327C59.4978 51.3574 61.816 52.5316 64.5256 53.5552C67.2955 54.5789 70.0352 55.7229 72.7448 56.9874C75.5146 58.1917 77.863 59.9981 79.7898 62.4067C81.7167 64.8152 82.6801 67.7356 82.6801 71.1678C82.6801 76.8279 80.4221 81.7955 75.906 86.0707C71.39 90.2856 66.1213 92.3931 60.0999 92.3931C55.5839 92.3931 51.5797 91.3093 48.0873 89.1416C45.0163 87.275 42.8487 85.6191 41.5842 84.1739L40.7713 83.1804L47.8163 73.4258Z" fill="white"/>
</svg>
