<svg width="121" height="116" viewBox="0 0 121 116" fill="none" xmlns="http://www.w3.org/2000/svg">
<g clip-path="url(#clip0_2_2)">
<rect width="121" height="116" rx="12" fill="white"/>
<path d="M76.8173 14.6924L108.706 61.0982L73.571 102.531L19.9681 81.7327L21.9744 27.4452L76.8173 14.6924Z" fill="#4002C9"/>
<path d="M76.2943 14.9987L102.376 58.6424L68.4201 100.533L18.6309 81.2138L21.8156 27.3836L76.2943 14.9987Z" fill="#570DF8"/>
<path d="M45.8163 70.4258C50.9345 75.544 56.0526 78.103 61.1708 78.103C63.8202 78.103 65.9277 77.5009 67.4933 76.2966C69.119 75.0321 69.9319 73.4365 69.9319 71.5096C69.9319 69.5226 68.9685 67.8667 67.0417 66.542C65.1148 65.1571 62.7665 63.9528 59.9966 62.9292C57.287 61.9055 54.5774 60.7615 51.8678 59.497C49.1582 58.1723 46.8399 56.3057 44.9131 53.8971C42.9862 51.4885 42.0228 48.5682 42.0228 45.136C42.0228 39.7167 44.2808 35.0502 48.7969 31.1363C53.3129 27.1622 58.6719 25.1751 64.874 25.1751C67.704 25.1751 70.4437 25.4762 73.0931 26.0783C75.7425 26.6805 78.3016 27.5536 80.7704 28.6976L74.6286 41.8844C72.9426 40.5597 70.6244 39.3555 67.6739 38.2716C64.7836 37.1276 62.2246 36.5555 59.9966 36.5555C57.8289 36.5555 56.0526 37.0974 54.6677 38.1813C53.343 39.2049 52.6807 40.5898 52.6807 42.336C52.6807 44.0822 53.6441 45.6478 55.5709 47.0327C57.4978 48.3574 59.816 49.5316 62.5256 50.5552C65.2955 51.5789 68.0352 52.7229 70.7448 53.9874C73.5146 55.1917 75.863 56.9981 77.7898 59.4067C79.7167 61.8152 80.6801 64.7356 80.6801 68.1678C80.6801 73.8279 78.4221 78.7955 73.906 83.0707C69.39 87.2856 64.1213 89.3931 58.0999 89.3931C53.5839 89.3931 49.5797 88.3093 46.0873 86.1416C43.0163 84.275 40.8487 82.6191 39.5842 81.1739L38.7713 80.1804L45.8163 70.4258Z" fill="white"/>
</g>
<defs>
<clipPath id="clip0_2_2">
<rect width="121" height="116" rx="12" fill="white"/>
</clipPath>
</defs>
</svg>
