<svg width="128" height="128" viewBox="0 0 128 128" fill="none" xmlns="http://www.w3.org/2000/svg">
<rect width="128" height="128" fill="white"/>
<path d="M80.8173 20.6924L112.706 67.0982L77.571 108.531L23.9681 87.7327L25.9744 33.4452L80.8173 20.6924Z" fill="#4002C9"/>
<path d="M80.2943 20.9987L106.376 64.6424L72.4201 106.533L22.6309 87.2138L25.8156 33.3836L80.2943 20.9987Z" fill="#570DF8"/>
<path d="M49.8163 76.4258C54.9345 81.544 60.0526 84.103 65.1708 84.103C67.8202 84.103 69.9277 83.5009 71.4933 82.2966C73.119 81.0321 73.9319 79.4365 73.9319 77.5096C73.9319 75.5226 72.9685 73.8667 71.0417 72.542C69.1148 71.1571 66.7665 69.9528 63.9966 68.9292C61.287 67.9055 58.5774 66.7615 55.8678 65.497C53.1582 64.1723 50.8399 62.3057 48.9131 59.8971C46.9862 57.4885 46.0228 54.5682 46.0228 51.136C46.0228 45.7167 48.2808 41.0502 52.7969 37.1363C57.3129 33.1622 62.6719 31.1751 68.874 31.1751C71.704 31.1751 74.4437 31.4762 77.0931 32.0783C79.7425 32.6805 82.3016 33.5536 84.7704 34.6976L78.6286 47.8844C76.9426 46.5597 74.6244 45.3555 71.6739 44.2716C68.7836 43.1276 66.2246 42.5555 63.9966 42.5555C61.8289 42.5555 60.0526 43.0974 58.6677 44.1813C57.343 45.2049 56.6807 46.5898 56.6807 48.336C56.6807 50.0822 57.6441 51.6478 59.5709 53.0327C61.4978 54.3574 63.816 55.5316 66.5256 56.5552C69.2955 57.5789 72.0352 58.7229 74.7448 59.9874C77.5146 61.1917 79.863 62.9981 81.7898 65.4067C83.7167 67.8152 84.6801 70.7356 84.6801 74.1678C84.6801 79.8279 82.4221 84.7955 77.906 89.0707C73.39 93.2856 68.1213 95.3931 62.0999 95.3931C57.5839 95.3931 53.5797 94.3093 50.0873 92.1416C47.0163 90.275 44.8487 88.6191 43.5842 87.1739L42.7713 86.1804L49.8163 76.4258Z" fill="white"/>
</svg>
