<svg width="128" height="128" viewBox="0 0 128 128" fill="none" xmlns="http://www.w3.org/2000/svg">
<g clip-path="url(#clip0_1_2)">
<rect width="128" height="128" fill="#1F2937"/>
<g clip-path="url(#clip1_1_2)">
<path fill-rule="evenodd" clip-rule="evenodd" d="M60.2346 49.2046C60.1295 49.0035 59.9812 48.8282 59.8003 48.6913C59.6193 48.5545 59.4103 48.4594 59.1882 48.4131C58.9661 48.3668 58.7365 48.3702 58.5159 48.4233C58.2954 48.4764 58.0893 48.5777 57.9126 48.72L45.9679 58.3406L31.2426 62.6293C31.0482 62.6859 30.867 62.7804 30.7094 62.9073L18.5265 72.7213C18.2504 72.9437 18.0598 73.2548 17.9872 73.6018C17.9146 73.9487 17.9643 74.3102 18.1281 74.6246L37.9903 112.709C38.0953 112.91 38.2436 113.086 38.4246 113.222C38.6055 113.359 38.8146 113.454 39.0366 113.501C39.2587 113.547 39.4883 113.543 39.7089 113.49C39.9295 113.437 40.1355 113.336 40.3122 113.194L52.2569 103.573L66.9823 99.2845C67.1766 99.2277 67.3577 99.1332 67.5155 99.0064L79.6984 89.1924C79.9745 88.9701 80.165 88.659 80.2377 88.312C80.3103 87.965 80.2605 87.6036 80.0968 87.2891L60.2346 49.2046ZM49.5915 101.78L31.1764 66.47L32.3947 65.4886L33.8967 65.0513L52.3118 100.361L51.1048 100.714C50.9104 100.77 50.7291 100.865 50.5716 100.992L49.5915 101.78ZM64.3281 96.8625L45.913 61.5526L47.1201 61.1999C47.3144 61.1433 47.4956 61.0488 47.6533 60.9219L48.6333 60.1339L67.0485 95.4437L65.8302 96.4251L64.3281 96.8625Z" fill="#24A038"/>
</g>
<path d="M68.6233 87.0863H52.3801V22.8242H81.0087C87.4383 22.8242 92.582 23.6025 96.4398 25.1591C100.298 26.7158 103.072 29.2538 104.764 32.7731C106.456 36.2925 107.302 41.0639 107.302 47.0874C107.302 52.7726 106.456 57.4086 104.764 60.9957C103.072 64.515 100.298 67.1207 96.4398 68.8127C92.582 70.5047 87.4383 71.3507 81.0087 71.3507H68.6233V87.0863ZM78.3692 36.1233H68.6233V58.0516H78.3692C83.1745 58.0516 86.3893 57.2394 88.0136 55.6151C89.6379 53.9908 90.4501 51.1482 90.4501 47.0874C90.4501 43.2297 89.6379 40.4548 88.0136 38.7628C86.3893 37.0031 83.1745 36.1233 78.3692 36.1233Z" fill="white"/>
<g clip-path="url(#clip2_1_2)">
<path d="M72.1598 31.6451C71.0935 31.6194 70.0438 31.3754 69.0755 30.9281C68.1072 30.4808 67.241 29.8397 66.5302 29.0444C66.9117 30.6676 66.6901 32.3741 65.9067 33.8459C65.1233 35.3178 63.8315 36.4547 62.272 37.0447C60.7125 37.6347 58.9917 37.6377 57.4302 37.053C55.8687 36.4683 54.573 35.3359 53.7846 33.8667C52.9961 32.3976 52.7687 30.6918 53.1446 29.0674C53.5206 27.443 54.4743 26.0106 55.828 25.0372C57.1817 24.0638 58.8432 23.6157 60.5028 23.7765C62.1624 23.9373 63.707 24.6959 64.8487 25.9111C64.3873 24.2374 64.5013 22.4572 65.1724 20.856C63.3024 19.9529 61.2338 19.539 59.1603 19.6533C57.0868 19.7675 55.0761 20.406 53.3167 21.5091C51.5572 22.6122 50.1064 24.1437 49.1001 25.9603C48.0938 27.7769 47.565 29.8191 47.5631 31.8958C47.5631 36.7733 50.2996 40.8571 52.3049 43.8338L52.6704 44.3769C54.6656 47.2686 56.806 50.0573 59.0833 52.7324L59.8771 53.662L60.6709 52.7324C62.9479 50.0571 65.0883 47.2683 67.0838 44.3769L67.4493 43.8233C69.4442 40.8467 72.1807 36.7733 72.1807 31.8958C72.1702 31.8122 72.1598 31.7287 72.1598 31.6451V31.6451Z" fill="#D97706"/>
<path d="M59.8667 34.4442C62.0182 34.4442 63.7624 32.7 63.7624 30.5484C63.7624 28.3969 62.0182 26.6527 59.8667 26.6527C57.7151 26.6527 55.9709 28.3969 55.9709 30.5484C55.9709 32.7 57.7151 34.4442 59.8667 34.4442Z" fill="#D97706"/>
<path d="M72.4 29.0445C75.2842 29.0445 77.6222 26.7064 77.6222 23.8222C77.6222 20.9381 75.2842 18.6 72.4 18.6C69.5158 18.6 67.1778 20.9381 67.1778 23.8222C67.1778 26.7064 69.5158 29.0445 72.4 29.0445Z" fill="#D97706"/>
</g>
</g>
<defs>
<clipPath id="clip0_1_2">
<rect width="128" height="128" fill="white"/>
</clipPath>
<clipPath id="clip1_1_2">
<rect width="49.0889" height="49.0889" fill="white" transform="translate(16 70.5441) rotate(-27.5434)"/>
</clipPath>
<clipPath id="clip2_1_2">
<rect width="37.6" height="37.6" fill="white" transform="translate(41.0667 17.5556)"/>
</clipPath>
</defs>
</svg>
